{
  "title": "The.Belier.Family.[La.Famille.Belier].2014.BRRip.x264.HORiZON-Ar",
  "uid": 11844259,
  "size": 2134492203,
  "categoryP": "video",
  "categoryS": "movies",
  "magnet": "?xt=urn:btih:deba70e1e477b8b78d6eaaaf84b9c3406b6cd538&amp;dn=The.Belier.Family.%5BLa.Famille.Belier%5D.2014.BRRip.x264.HORiZON-Ar&amp;tr=udp%3A%2F%2Ftracker.openbittorrent.com%3A80&amp;tr=udp%3A%2F%2Fopen.demonii.com%3A1337&amp;tr=udp%3A%2F%2Ftracker.coppersurfer.tk%3A6969&amp;tr=udp%3A%2F%2Fexodus.desync.com%3A6969",
  "seeders": 287,
  "leechers": 19,
  "uploader": "lletaif",
  "files": 1,
  "time": 1429894424,
  "description": "General\nUnique ID                                : 195737968188629392094636422400565268866 (0x9341C2EC57AB81638FCAC31479835182)\nComplete name                            : The.Belier.Family.[La.Famille.Belier].2014.BRRip.x264.HORiZON-ArtSubs\nFormat                                   : Matroska\nFormat version                           : Version 2\nFile size                                : 1.99 GiB\nDuration                                 : 1h 45mn\nOverall bit rate mode                    : Variable\nOverall bit rate                         : 2 702 Kbps\nMovie name                               : fido-lafamillebelier1080p\nEncoded date                             : UTC 2015-04-24 03:02:37\nWriting application                      : DVDFab 9.1.4.0\nWriting library                          : libebml v0.7.8 + libmatroska v0.8.1\n\nVideo\nID                                       : 1\nFormat                                   : AVC\nFormat/Info                              : Advanced Video Codec\nFormat profile                           : &lt;a class=&quot;__cf_email__&quot; href=&quot;/cdn-cgi/l/email-protection&quot; data-cfemail=&quot;c78faea0af878bf3e9f6&quot;&gt;[email&amp;#160;protected]&lt;/a&gt;&lt;script cf-hash='f9e31' type=&quot;text/javascript&quot;&gt;\n/* &lt;![CDATA[ */!function(){try{var t=&quot;currentScript&quot;in document?document.currentScript:function(){for(var t=document.getElementsByTagName(&quot;script&quot;),e=t.length;e--;)if(t[e].getAttribute(&quot;cf-hash&quot;))return t[e]}();if(t&amp;&amp;t.previousSibling){var e,r,n,i,c=t.previousSibling,a=c.getAttribute(&quot;data-cfemail&quot;);if(a){for(e=&quot;&quot;,r=parseInt(a.substr(0,2),16),n=2;a.length-n;n+=2)i=parseInt(a.substr(n,2),16)^r,e+=String.fromCharCode(i);e=document.createTextNode(e),c.parentNode.replaceChild(e,c)}}}catch(u){}}();/* ]]&gt; */&lt;/script&gt;\nFormat settings, CABAC                   : Yes\nFormat settings, ReFrames                : 2 frames\nCodec ID                                 : V_MPEG4/ISO/AVC\nDuration                                 : 1h 45mn\nBit rate mode                            : Variable\nBit rate                                 : 2 200 Kbps\nMaximum bit rate                         : 3 400 Kbps\nWidth                                    : 1 152 pixels\nHeight                                   : 624 pixels\nDisplay aspect ratio                     : 1.85:1\nFrame rate mode                          : Constant\nFrame rate                               : 23.976 fps\nColor space                              : YUV\nChroma subsampling                       : 4:2:0\nBit depth                                : 8 bits\nScan type                                : Progressive\nBits/(Pixel*Frame)                       : 0.128\nStream size                              : 1.62 GiB (81%)\nDefault                                  : Yes\nForced                                   : No\n\nAudio\nID                                       : 2\nFormat                                   : AC-3\nFormat/Info                              : Audio Coding 3\nMode extension                           : CM (complete main)\nFormat settings, Endianness              : Big\nCodec ID                                 : A_AC3\nDuration                                 : 1h 45mn\nBit rate mode                            : Constant\nBit rate                                 : 448 Kbps\nChannel(s)                               : 6 channels\nChannel positions                        : Front: L C R, Side: L R, LFE\nSampling rate                            : 48.0 KHz\nBit depth                                : 16 bits\nCompression mode                         : Lossy\nStream size                              : 338 MiB (17%)\nLanguage                                 : French\nDefault                                  : Yes\nForced                                   : No",
  "parsed": {
    "xt": "urn:btih:deba70e1e477b8b78d6eaaaf84b9c3406b6cd538",
    "dn": "The.Belier.Family.[La.Famille.Belier].2014.BRRip.x264.HORiZON-Ar",
    "tr": [
      "udp://exodus.desync.com:6969",
      "udp://open.demonii.com:1337",
      "udp://tracker.coppersurfer.tk:6969",
      "udp://tracker.openbittorrent.com:80"
    ],
    "infoHash": "deba70e1e477b8b78d6eaaaf84b9c3406b6cd538",
    "infoHashBuffer": {
      "type": "Buffer",
      "data": [
        222,
        186,
        112,
        225,
        228,
        119,
        184,
        183,
        141,
        110,
        170,
        175,
        132,
        185,
        195,
        64,
        107,
        108,
        213,
        56
      ]
    },
    "name": "The.Belier.Family.[La.Famille.Belier].2014.BRRip.x264.HORiZON-Ar",
    "announce": [
      "udp://exodus.desync.com:6969",
      "udp://open.demonii.com:1337",
      "udp://tracker.coppersurfer.tk:6969",
      "udp://tracker.openbittorrent.com:80"
    ],
    "urlList": []
  },
  "previous": 306,
  "peers": 50,
  "last_updated": "2016-12-25T15:58:46.816Z"
}